<mxfile host="app.diagrams.net" agent="Mozilla/5.0 (Windows NT 10.0; Win64; x64) AppleWebKit/537.36 (KHTML, like Gecko) Chrome/141.0.0.0 Safari/537.36 Edg/141.0.0.0" version="28.2.5">
  <diagram name="PÃ¡gina-1" id="bUJeoU7_6m42buMJ5uw1">
    <mxGraphModel dx="567" dy="314" grid="1" gridSize="10" guides="1" tooltips="1" connect="1" arrows="1" fold="1" page="1" pageScale="1" pageWidth="827" pageHeight="1169" math="0" shadow="0">
      <root>
        <mxCell id="0" />
        <mxCell id="1" parent="0" />
        <mxCell id="hcyIENvU28msNX9LQsRk-3" style="edgeStyle=orthogonalEdgeStyle;rounded=0;orthogonalLoop=1;jettySize=auto;html=1;entryX=0.5;entryY=0;entryDx=0;entryDy=0;" edge="1" parent="1" source="hcyIENvU28msNX9LQsRk-1" target="hcyIENvU28msNX9LQsRk-2">
          <mxGeometry relative="1" as="geometry">
            <Array as="points">
              <mxPoint x="210" y="40" />
            </Array>
          </mxGeometry>
        </mxCell>
        <mxCell id="hcyIENvU28msNX9LQsRk-1" value="Inicio" style="ellipse;whiteSpace=wrap;html=1;" vertex="1" parent="1">
          <mxGeometry x="10" y="10" width="80" height="30" as="geometry" />
        </mxCell>
        <mxCell id="hcyIENvU28msNX9LQsRk-2" value="LER: sandes = 1,&amp;nbsp;&lt;span style=&quot;background-color: transparent;&quot;&gt;Bolos = 0.8,&amp;nbsp;&lt;/span&gt;&lt;span style=&quot;background-color: transparent; color: light-dark(rgb(0, 0, 0), rgb(255, 255, 255));&quot;&gt;Refrigerantes = 1.5,&amp;nbsp;&lt;/span&gt;&lt;span style=&quot;background-color: transparent; color: light-dark(rgb(0, 0, 0), rgb(255, 255, 255));&quot;&gt;cafe = 0.6, valor_sandes=0, valor_Bolos&lt;/span&gt;=0&lt;span style=&quot;background-color: transparent; color: light-dark(rgb(0, 0, 0), rgb(255, 255, 255));&quot;&gt;, valor_&lt;/span&gt;Refrigerantes=0, valor_cafe=0, sandes_quantidade, Bolos_quantidade, Refrigerantes_quantidade, cafe_quantidade&amp;nbsp;lucro=0" style="shape=parallelogram;perimeter=parallelogramPerimeter;whiteSpace=wrap;html=1;fixedSize=1;" vertex="1" parent="1">
          <mxGeometry y="60" width="420" height="60" as="geometry" />
        </mxCell>
        <mxCell id="hcyIENvU28msNX9LQsRk-10" style="edgeStyle=orthogonalEdgeStyle;rounded=0;orthogonalLoop=1;jettySize=auto;html=1;entryX=0.5;entryY=0;entryDx=0;entryDy=0;" edge="1" parent="1" source="hcyIENvU28msNX9LQsRk-4" target="hcyIENvU28msNX9LQsRk-7">
          <mxGeometry relative="1" as="geometry" />
        </mxCell>
        <mxCell id="hcyIENvU28msNX9LQsRk-4" value="Escrever &quot;Vendes sandes por quanto?&quot; LER valor_sandes" style="shape=parallelogram;perimeter=parallelogramPerimeter;whiteSpace=wrap;html=1;fixedSize=1;" vertex="1" parent="1">
          <mxGeometry x="40" y="140" width="300" height="50" as="geometry" />
        </mxCell>
        <mxCell id="hcyIENvU28msNX9LQsRk-5" style="edgeStyle=orthogonalEdgeStyle;rounded=0;orthogonalLoop=1;jettySize=auto;html=1;entryX=0.5;entryY=0;entryDx=0;entryDy=0;" edge="1" parent="1" source="hcyIENvU28msNX9LQsRk-2" target="hcyIENvU28msNX9LQsRk-4">
          <mxGeometry relative="1" as="geometry">
            <Array as="points">
              <mxPoint x="205" y="120" />
              <mxPoint x="190" y="120" />
            </Array>
          </mxGeometry>
        </mxCell>
        <mxCell id="hcyIENvU28msNX9LQsRk-7" value="Escrever &quot;Vendes Bolos por quanto?&quot; LER valor_Bolos" style="shape=parallelogram;perimeter=parallelogramPerimeter;whiteSpace=wrap;html=1;fixedSize=1;" vertex="1" parent="1">
          <mxGeometry x="20" y="210" width="340" height="50" as="geometry" />
        </mxCell>
        <mxCell id="hcyIENvU28msNX9LQsRk-19" style="edgeStyle=orthogonalEdgeStyle;rounded=0;orthogonalLoop=1;jettySize=auto;html=1;entryX=0.5;entryY=0;entryDx=0;entryDy=0;" edge="1" parent="1" source="hcyIENvU28msNX9LQsRk-8" target="hcyIENvU28msNX9LQsRk-18">
          <mxGeometry relative="1" as="geometry" />
        </mxCell>
        <mxCell id="hcyIENvU28msNX9LQsRk-8" value="Escrever &quot;Vendes cafe&amp;nbsp;por quanto?&quot; LER valor_cafe" style="shape=parallelogram;perimeter=parallelogramPerimeter;whiteSpace=wrap;html=1;fixedSize=1;" vertex="1" parent="1">
          <mxGeometry x="25" y="350" width="310" height="40" as="geometry" />
        </mxCell>
        <mxCell id="hcyIENvU28msNX9LQsRk-9" value="Escrever &quot;Vendes Refrigerantes&amp;nbsp;por quanto?&quot; LER valor_Refrigerantes" style="shape=parallelogram;perimeter=parallelogramPerimeter;whiteSpace=wrap;html=1;fixedSize=1;" vertex="1" parent="1">
          <mxGeometry x="35" y="280" width="300" height="50" as="geometry" />
        </mxCell>
        <mxCell id="hcyIENvU28msNX9LQsRk-11" style="edgeStyle=orthogonalEdgeStyle;rounded=0;orthogonalLoop=1;jettySize=auto;html=1;entryX=0.517;entryY=0;entryDx=0;entryDy=0;entryPerimeter=0;" edge="1" parent="1" source="hcyIENvU28msNX9LQsRk-7" target="hcyIENvU28msNX9LQsRk-9">
          <mxGeometry relative="1" as="geometry" />
        </mxCell>
        <mxCell id="hcyIENvU28msNX9LQsRk-13" style="edgeStyle=orthogonalEdgeStyle;rounded=0;orthogonalLoop=1;jettySize=auto;html=1;entryX=0.518;entryY=0.007;entryDx=0;entryDy=0;entryPerimeter=0;" edge="1" parent="1" source="hcyIENvU28msNX9LQsRk-9" target="hcyIENvU28msNX9LQsRk-8">
          <mxGeometry relative="1" as="geometry" />
        </mxCell>
        <mxCell id="hcyIENvU28msNX9LQsRk-21" value="" style="edgeStyle=orthogonalEdgeStyle;rounded=0;orthogonalLoop=1;jettySize=auto;html=1;" edge="1" parent="1" source="hcyIENvU28msNX9LQsRk-18" target="hcyIENvU28msNX9LQsRk-20">
          <mxGeometry relative="1" as="geometry" />
        </mxCell>
        <mxCell id="hcyIENvU28msNX9LQsRk-18" value="lucro = (valor_sandes - sandes)*sandes_quantidade + (valor_Bolos - Bolos)*Bolos_quantidade + (valor_Refrigerantes - Refrigerantes)*Refrigerantes_quantidade&amp;nbsp;+ (valor_cafe - cafe)*cafe_quantidade" style="rounded=0;whiteSpace=wrap;html=1;" vertex="1" parent="1">
          <mxGeometry x="20" y="430" width="425" height="60" as="geometry" />
        </mxCell>
        <mxCell id="hcyIENvU28msNX9LQsRk-23" value="" style="edgeStyle=orthogonalEdgeStyle;rounded=0;orthogonalLoop=1;jettySize=auto;html=1;" edge="1" parent="1" source="hcyIENvU28msNX9LQsRk-20" target="hcyIENvU28msNX9LQsRk-22">
          <mxGeometry relative="1" as="geometry" />
        </mxCell>
        <mxCell id="hcyIENvU28msNX9LQsRk-20" value="Escrever &quot;O lucro do bar foi&quot; LER lucro" style="shape=parallelogram;perimeter=parallelogramPerimeter;whiteSpace=wrap;html=1;fixedSize=1;" vertex="1" parent="1">
          <mxGeometry x="70" y="520" width="290" height="50" as="geometry" />
        </mxCell>
        <mxCell id="hcyIENvU28msNX9LQsRk-22" value="Fim" style="ellipse;whiteSpace=wrap;html=1;" vertex="1" parent="1">
          <mxGeometry x="175" y="600" width="80" height="40" as="geometry" />
        </mxCell>
      </root>
    </mxGraphModel>
  </diagram>
</mxfile>
